<?xml version="1.0" encoding="utf-8"?>
<!-- Generator: Adobe Illustrator 16.0.0, SVG Export Plug-In . SVG Version: 6.00 Build 0)  -->
<!DOCTYPE svg PUBLIC "-//W3C//DTD SVG 1.1//EN" "http://www.w3.org/Graphics/SVG/1.1/DTD/svg11.dtd">
<svg version="1.1" id="Layer_1" xmlns="http://www.w3.org/2000/svg" xmlns:xlink="http://www.w3.org/1999/xlink" x="0px" y="0px"
	 width="51px" height="48px" viewBox="0 0 51 48" enable-background="new 0 0 51 48" xml:space="preserve">
<title>39 - Baloons (Outline)</title>
<g>
	<path fill="none" stroke="#F15A29" stroke-linecap="round" d="M9,5.626c0.787-0.345,1.64-0.523,2.5-0.523 M5.293,11.31
		c0-1.217,0.36-2.42,1.035-3.434 M45.432,12.022c0-1.577-0.611-3.116-1.693-4.263"/>
	<path fill="none" stroke="#F15A29" stroke-linecap="round" d="M23.362,13.414C23.362,6.558,18.5,1,12.5,1S1.638,6.558,1.638,13.414
		c0,6.07,3.816,11.107,8.853,12.186c0.233,0.051,0.364,0.295,0.264,0.51l-0.582,1.271h4.656l-0.582-1.271
		c-0.1-0.215,0.03-0.459,0.263-0.51C19.546,24.521,23.362,19.483,23.362,13.414z M49.361,13.414C49.361,6.558,44.5,1,38.5,1
		S27.639,6.558,27.639,13.414c0,6.07,3.815,11.107,8.854,12.186c0.232,0.051,0.363,0.295,0.264,0.51l-0.582,1.271h4.656
		l-0.582-1.271c-0.102-0.215,0.029-0.459,0.264-0.51C45.546,24.521,49.361,19.483,49.361,13.414z"/>
	<path fill="none" stroke="#F15A29" stroke-linecap="round" d="M12,28v18.189 M39,28v18.189"/>
</g>
</svg>
