<?xml version="1.0" encoding="utf-8"?>
<!-- Generator: Adobe Illustrator 16.0.0, SVG Export Plug-In . SVG Version: 6.00 Build 0)  -->
<!DOCTYPE svg PUBLIC "-//W3C//DTD SVG 1.1//EN" "http://www.w3.org/Graphics/SVG/1.1/DTD/svg11.dtd">
<svg version="1.1" id="Layer_1" xmlns="http://www.w3.org/2000/svg" xmlns:xlink="http://www.w3.org/1999/xlink" x="0px" y="0px"
	 width="37px" height="39px" viewBox="0 0 37 39" enable-background="new 0 0 37 39" xml:space="preserve">
<title>181 - Idea (Outline)</title>
<g>
	<path fill="none" stroke="#F15A29" stroke-linecap="round" stroke-linejoin="round" d="M7.972,18.538
		c0,4.675,3.036,8.632,7.238,10.017v7.467h1.316V38h3.949v-1.979h1.315v-7.467c4.202-1.386,7.237-5.343,7.237-10.018
		c0-5.826-4.713-10.55-10.527-10.55C12.685,7.988,7.972,12.712,7.972,18.538z M15.21,32h6.58 M18,1v2.885 M36,17h-2.917 M3.917,17H1
		 M30.875,6.07l-2.062,2.04 M8.188,28.506l-2.063,2.04 M30.875,30.546l-2.062-2.04 M8.188,8.11L6.125,6.07"/>
</g>
</svg>
